<svg id="Layer_1" data-name="Layer 1" xmlns="http://www.w3.org/2000/svg" viewBox="0 0 106.45 122.88"><title>career</title><path d="M81.71,78.89V66.31h24.74v56.57H17.36V104.37H38.77V91.63H59.56V78.89ZM20.84,51.8l-1.9-1.54a.19.19,0,0,0-.1,0,.14.14,0,0,0-.1.05l-3.25,4a.19.19,0,0,0,0,.1.15.15,0,0,0,.06.1L17.41,56a.2.2,0,0,0,.11,0,.11.11,0,0,0,.09-.05l3.25-4a.13.13,0,0,0,0-.1.14.14,0,0,0-.05-.1ZM15.39,33.28,22,38.63,25.08,35a1.34,1.34,0,0,1,.89-.49,1.37,1.37,0,0,1,1,.28c1.39-1.59,2.77-3.22,4.13-4.82,1-1.3,2-2.48,3-3.52a17.45,17.45,0,0,1,3.21-2.77,14.25,14.25,0,0,1,4.12-1.84h0a22.9,22.9,0,0,1,5.49-.71H47c1.52-.08,3.3,0,4.79,0l1.84,0c7.48,0,11.2,3.66,14.08,6.51l0,0c.59.58,1.15,1.13,1.67,1.57a5.61,5.61,0,0,0,1.47,1h0c.24.08.88-.24,1.59-.6h0a14.7,14.7,0,0,1,1.75-.78c2.5-1.15,5.06-2.54,7.55-3.56a3.53,3.53,0,0,1,1.67-.25,4.71,4.71,0,0,1,1.72.5,5.12,5.12,0,0,1,1.09.74,5.49,5.49,0,0,1,.89,1l0,.05a5.32,5.32,0,0,1,.64,1.23v0a5.29,5.29,0,0,1-.16,3.81,5.26,5.26,0,0,1-.76,1.41,5.41,5.41,0,0,1-2.46,1.84c-1.87.91-3.75,1.84-5.64,2.65a28.06,28.06,0,0,1-4.92,1.76,14.92,14.92,0,0,1-5.87,0l-.18,0a15.51,15.51,0,0,1-6.06-3.55l-1,9.63c.77.4,1.53.75,2.27,1.07.91.39,1.78.73,2.63,1.06h0c5.42,2.11,9.88,3.86,11.36,12.14.18,1,.35,3,.49,5.3.23,3.45.4,7.48.44,8.95v0a.57.57,0,0,1,0,.18.69.69,0,0,1-.66.51h-.11a5.59,5.59,0,0,1-.64.06H74.74c-2,0-4.51,0-5.69,0h-.29c-.42,0-.62,0-.88-.28a1,1,0,0,1-.22-.78v-.4c-.09-1.67-.27-4.47-.45-7-.14-1.8-.27-3.42-.38-4.28a7.19,7.19,0,0,0-.18-.88,4.51,4.51,0,0,0-.32-.79l-.09-.16c-.3-.55-.57-1.06-.78-1.14h0c-.39-.16-.91-.33-1.51-.51s-1.48-.42-2.27-.63-1.72-.43-2.68-.65l-2.28-.51C56.06,60.1,55.53,63,55,66.05c-1.32,7.23-2.72,14.89-5.35,21a.7.7,0,0,1-.87.39,12.86,12.86,0,0,1-2.15.14c-2.13,0-5.08,0-6.35-.08H40c-.43,0-.65,0-.89-.35l0,0A1,1,0,0,1,39,86.3l.07-.33c.13-.67.34-1.71.61-3l1.12-5.21c.74-3.43,1.75-8,2.73-12.39,1.27-5.74,2.4-10.75,2.79-12.47-.36-.41-.72-.83-1-1.27a13.27,13.27,0,0,1-1.12-1.77,9.3,9.3,0,0,1-.81-2.23,7.31,7.31,0,0,1-.11-2.48L45,31.76a4,4,0,0,0-1.75.42h0a6.05,6.05,0,0,0-1.48,1.18c-.49.52-1,1.15-1.5,1.82l0,0c-.41.52-.84,1.08-1.37,1.7-1.29,1.5-2.59,3.06-3.9,4.57a1.34,1.34,0,0,1-.21,1.33L31.6,46.43l6.59,5.35A1.89,1.89,0,0,1,38.87,53a1.86,1.86,0,0,1-.41,1.38L35.6,58a42,42,0,0,1-7.45-1.26,37,37,0,0,1-6.95-2.61l1.14-1.41a1.51,1.51,0,0,0-.22-2.13l-2.2-1.79h0a1.51,1.51,0,0,0-2.13.22l-1.12,1.38a37.44,37.44,0,0,1-3.88-6.12A41.72,41.72,0,0,1,10,37l2.79-3.43a1.88,1.88,0,0,1,2.64-.28Zm9.83,4.94L23.71,40l6.23,5,1.16-1.34c-1.77-1.52-4.21-3.7-5.77-5.33l-.11-.12ZM33.9,60l-7.77,9.58a1.82,1.82,0,0,1-1.26.68,1.89,1.89,0,0,1-1.38-.4L.69,51.4A1.89,1.89,0,0,1,0,50.13a1.83,1.83,0,0,1,.41-1.37l7.84-9.67a43.38,43.38,0,0,0,2.49,6,38.65,38.65,0,0,0,4.5,7L14,53.62a1.51,1.51,0,0,0,.23,2.13l2.2,1.79a1.51,1.51,0,0,0,2.13-.22l1.29-1.59-.06.11a38.81,38.81,0,0,0,7.9,3A42.16,42.16,0,0,0,33.9,60ZM76.65,74.7h0c0,.07,0,.08,0,0Zm-24-74A9.13,9.13,0,0,1,56.25,0a9.28,9.28,0,0,1,8.61,5.73,9.13,9.13,0,0,1,.72,3.56,9.28,9.28,0,0,1-5.73,8.61,9.13,9.13,0,0,1-3.56.72,9.37,9.37,0,0,1-3.56-.7,9.25,9.25,0,0,1-5-5A9.13,9.13,0,0,1,47,9.33,9.28,9.28,0,0,1,52.69.72Z"/></svg>