<svg xmlns="http://www.w3.org/2000/svg" shape-rendering="geometricPrecision" text-rendering="geometricPrecision" image-rendering="optimizeQuality" fill-rule="evenodd" clip-rule="evenodd" viewBox="0 0 512 494.98"><path d="M178.04 311.17c32.3 61.92 130.11 59.41 155.92 0 37.65 33.88 119.56 20.26 153.82 65.49 18.16 23.98 19.55 62.31 24.22 92.13-1.48 15.76-10.43 24.85-28.03 26.19H28.03C10.43 493.64 1.48 484.55 0 468.79c4.68-29.82 6.06-68.16 24.22-92.13 34.23-45.22 116.18-31.62 153.82-65.49zm39.52-285.19c-1.05.04-2.07-.16-3.01-.47-26.87 12-48.62 38.41-54.52 82.37-.63 4.86-5.25 8.25-10.29 7.67-5.05-.63-8.61-5.05-7.98-9.86 6.88-51.24 33.17-82.22 65.67-96.46C223.82 2.04 241.7-.82 259.38.2c17.64.98 35.12 5.79 50.85 13.92 33.28 17.25 58.63 49.48 60.47 92.4.19 4.88-3.76 8.99-8.84 9.19-5.09.19-9.35-3.6-9.55-8.49-1.52-35.95-22.84-62.97-50.81-77.49-1.21-.63-2.38-1.21-3.63-1.8-1.02.36-2.11.55-3.29.51-16.03-.38-10.6 69.41-10.6 85.62 0 4.97-4.11 9-9.15 9-5.05 0-9.16-4.03-9.16-9 0-25.41-4.33-75.58 8.88-93.99-5.35-1.13-10.79-1.88-16.23-2.19-6.84-.39-13.69-.08-20.42.9 12.48 19.35 8.26 69.36 8.26 95.28 0 4.93-3.99 8.92-8.92 8.92s-8.92-3.99-8.92-8.92c0-16.62 5.55-88.54-10.76-88.08zm144.36 120.24c8.4 20.42 10.06 37.02 2.77 58.5l-.05.11c-2.13 6.04-5.03 11.5-8.42 15.47-2.88 3.38-6.17 5.74-9.73 6.58l-1.96 7.36c-5.94 21.9-17.66 41.09-33.46 54.42l-.16.11c-14.91 12.52-33.43 19.83-54.15 19.28-21.81-.35-40.05-8.24-54.66-21.1-16.23-14.28-27.98-34.69-35.17-57.67-.36-1.5-.99-3.19-1.48-4.69-5.8-.71-10.36-5.01-13.82-10.7-8.77-14.45-10.68-31.66-6.45-47.81 1.59-6.09 3.8-12.05 5.98-17.31-10.37-5.53-20.19-13.2-25.32-24.03l16.74-7.31c13.07 27.6 81.45 32.5 106.98 32.58 37.47.12 75.65-5.98 100.13-17.6 9.67-4.58 16.9-9.9 20.62-15.84l15.8 9.07c-5.02 8.05-13.41 14.92-24.19 20.58zm-194.35 9.64c-14.48 14.52-3.53 57.28 4.4 55.69 7.01-2.03 8.37 8.46 9.76 12.95 7.58 24.06 21.25 41.64 37.39 52.34 12.04 7.99 25.48 12.17 38.78 12.36 13.29.19 26.5-3.57 38.09-11.45 14.15-9.61 25.95-25.38 32.72-47.57 1.15-4.51 2.65-17.01 9.59-15.67 11.17 2.19 14.54-29.81 13.49-37.95-.86-6.73-3.08-13.31-6.07-22.03a2.39 2.39 0 0 1-.1-1.09l.02-.18c-47.54 17.03-127.75 20.22-178.07 2.6z"/></svg>