<?xml version="1.0" encoding="utf-8"?><svg version="1.1" id="Layer_1" xmlns="http://www.w3.org/2000/svg" xmlns:xlink="http://www.w3.org/1999/xlink" x="0px" y="0px" viewBox="0 0 122.88 85.54" style="enable-background:new 0 0 122.88 85.54" xml:space="preserve"><g><path d="M94.76,85.54L84.12,49.99h2.76l16.07,35.54H94.76L94.76,85.54z M103.01,50.02V35.95H91.42c-1.94,0.18-2.33-1.36-1.5-2.63 l7.4-8.68l-0.21-0.21h-3.96c-1.44,0.21-1.97-1.34-1.1-2.44l7.97-9.37h-2.33c-1.46,0.04-1.82-1.3-0.88-2.57l7.26-8.63 c0.5-0.59,1.03-1.45,1.89-1.43c0.74,0.02,1.19,0.72,1.63,1.24l7.73,9.01c0.84,1.2,0.12,2.47-1.34,2.47h-2.09l7.92,9.28 c0.95,0.94,0.46,2.44-0.63,2.65h-4.6l6.9,8.1l0.76,0.89c0.58,0.66,0.29,2.17-0.96,2.32h-12.44v14.08h14.04v7.2H96.07l-3-7.2H103.01 L103.01,50.02z M16.62,45.23v3.56h-1.46v-1.13h0.33v-2.43H16.62L16.62,45.23L16.62,45.23z M8.16,41c-0.5,0.14-0.99,0.23-1.47,0.25 c-1.13,0.06-2.19-0.19-3.09-0.72C2.7,40,1.97,39.2,1.49,38.16c-0.72-1.56-0.85-3.65-0.1-6.12c-1.15-1.69-1.53-3.39-1.34-4.93 c0.17-1.3,0.75-2.47,1.65-3.43c0.89-0.94,2.08-1.67,3.48-2.09c2.23-0.67,4.99-0.55,7.86,0.73c0.3-0.24,0.6-0.45,0.89-0.65 c1.72-1.12,3.49-1.63,5.27-1.35c1.76,0.27,3.49,1.31,5.12,3.27c0.34,0.4,0.66,0.84,0.98,1.31c1.94-0.05,3.56,0.45,4.7,1.28 c0.77,0.56,1.32,1.28,1.61,2.08c0.29,0.81,0.32,1.71,0.02,2.63c-0.39,1.22-1.35,2.47-2.98,3.6c-0.14,1.49-0.52,2.78-1.1,3.78 c-0.54,0.94-1.25,1.64-2.09,2.03c-0.85,0.39-1.82,0.46-2.84,0.13c-0.29-0.09-0.59-0.22-0.89-0.38c-0.22,0.52-0.41,0.97-0.59,1.39 c-1.47,3.41-2,4.64-2.17,8.59h13.3l-3.01,7.2H2.81v-7.2h8.87c-0.05-3.76-0.38-4.25-2.16-6.93C9.14,42.52,8.7,41.85,8.16,41L8.16,41 L8.16,41z M9.24,40.6c0.46,0.71,0.87,1.33,1.22,1.86c1.96,2.95,2.3,3.46,2.35,7.56h5.02c0.18-4.19,0.72-5.46,2.26-9.03 c0.22-0.52,0.45-1.04,0.67-1.56c-0.13-0.1-0.26-0.2-0.38-0.31c-0.25,0.26-0.49,0.49-0.74,0.69c-1.15,0.95-2.32,1.39-3.5,1.35 c-1.17-0.04-2.32-0.56-3.43-1.53c-0.28-0.25-0.56-0.52-0.84-0.82C11.03,39.6,10.13,40.2,9.24,40.6L9.24,40.6L9.24,40.6z M12.64,40.84l2.3,3.8l-0.97,0.58l-2.3-3.8L12.64,40.84L12.64,40.84z M39.94,85.54l6.68-35.54h-3.29L32.7,85.54H39.94L39.94,85.54z M29.19,85.54l10.64-35.54h-2.76L20.99,85.54H29.19L29.19,85.54z M63.67,85.54l0-35.54h3.34l3.33,35.54H63.67L63.67,85.54z M74,85.54l-3.7-35.54h3.34l7.03,35.54H74L74,85.54z M84.01,85.54l-6.68-35.54h3.29l10.63,35.54H84.01L84.01,85.54z M60.28,85.54 l0-35.54h-3.34L53.6,85.54H60.28L60.28,85.54z M49.94,85.54l3.7-35.54H50.3l-7.03,35.54H49.94L49.94,85.54z M2.81,74.71h18.52 l-4.91,10.83H2.81V74.71L2.81,74.71z M103.96,74.71h18.92v10.83h-14.03L103.96,74.71L103.96,74.71z M2.81,62.28h24.15l-3.34,7.36 H2.81V62.28L2.81,62.28z M98.36,62.28h24.52v7.36h-21.2L98.36,62.28L98.36,62.28z"/></g></svg>