<?xml version="1.0" encoding="UTF-8"?><svg width="24px" height="24px" viewBox="0 0 24 24" stroke-width="1.5" fill="none" xmlns="http://www.w3.org/2000/svg" color="#000000"><path d="M4 18v-8a2 2 0 012-2h14a2 2 0 012 2v8a2 2 0 01-2 2H6a2 2 0 01-2-2zM18.5 14.01l.01-.011M7.5 14.01l.01-.011" stroke="#000000" stroke-width="1.5" stroke-linecap="round" stroke-linejoin="round"></path><path d="M4 16H3a2 2 0 01-2-2V6a2 2 0 012-2h14a2 2 0 012 2v2M13 16a2 2 0 110-4 2 2 0 010 4z" stroke="#000000" stroke-width="1.5" stroke-linecap="round" stroke-linejoin="round"></path></svg>