<?xml version="1.0" encoding="UTF-8"?>
<!DOCTYPE svg PUBLIC "-//W3C//DTD SVG 1.1//EN" "http://www.w3.org/Graphics/SVG/1.1/DTD/svg11.dtd">
<!-- Creator: CorelDRAW -->
<svg xmlns="http://www.w3.org/2000/svg" xml:space="preserve" width="512px" height="512px" version="1.1" shape-rendering="geometricPrecision" text-rendering="geometricPrecision" image-rendering="optimizeQuality" fill-rule="evenodd" clip-rule="evenodd"
viewBox="0 0 512 512"
 xmlns:xlink="http://www.w3.org/1999/xlink"
 xmlns:xodm="http://www.corel.com/coreldraw/odm/2003">
 <g id="Layer_x0020_1">
  <metadata id="CorelCorpID_0Corel-Layer"/>
  <path fill="black" fill-rule="nonzero" d="M256 0c70.68,0 134.69,28.66 181.01,74.99 46.33,46.32 74.99,110.33 74.99,181.01 0,70.69 -28.66,134.69 -74.99,181.01 -46.32,46.33 -110.32,74.99 -181.01,74.99 -70.68,0 -134.69,-28.66 -181.01,-74.99 -46.33,-46.32 -74.99,-110.33 -74.99,-181.01 0,-70.68 28.66,-134.69 74.99,-181.01 46.32,-46.33 110.33,-74.99 181.01,-74.99zm-4.84 235.39l41.32 0 0 32.63 -36.53 0c-0.46,7.66 -1.86,14.59 -4.23,20.77 -1.91,4.69 -5.06,9.58 -9.53,14.64 5.07,-1.12 9.44,-1.67 13.07,-1.67 4.64,0 10.69,0.88 18.12,2.65 10.18,2.32 18.31,3.48 24.4,3.48 4.98,0 9.3,-0.42 12.97,-1.25 3.72,-0.84 8.56,-2.6 14.51,-5.3l18.54 40.72c-8.97,4.46 -16.87,7.57 -23.7,9.29 -6.79,1.72 -14.09,2.56 -21.9,2.56 -8.55,0 -18.26,-1.49 -29.28,-4.46 -14.41,-3.95 -23.33,-6.23 -26.82,-6.88 -3.44,-0.61 -7.16,-0.93 -11.16,-0.93 -11.71,0 -24.63,4.09 -38.76,12.27l-17.66 -38.76c19.15,-13.67 28.72,-27.34 28.72,-41 0,-0.75 -0.09,-2.79 -0.28,-6.13l-28.44 0 0 -32.63 20.36 0c-3.44,-11.95 -5.44,-18.92 -5.86,-20.83 -0.56,-2.88 -0.84,-6.46 -0.84,-10.74 0,-11.34 3.02,-21.52 9.06,-30.53 6,-9.02 13.95,-15.57 23.8,-19.62 9.86,-4.09 23.11,-6.14 39.79,-6.14 15.62,0 27.98,1.77 37.09,5.26 9.12,3.48 16.83,9.3 23.1,17.38 6.32,8.13 10.65,17.94 13.02,29.47l-52.15 8.13c-2.6,-9.66 -5.62,-16.08 -9.02,-19.24 -3.39,-3.16 -7.25,-4.74 -11.57,-4.74 -5.26,0 -9.48,1.72 -12.74,5.16 -3.25,3.44 -4.88,8.32 -4.88,14.64 0,3.39 0.32,6.6 0.98,9.72 0.6,3.16 2.79,10.5 6.5,22.08zm161.92 -136.48c-40.19,-40.19 -95.73,-65.05 -157.08,-65.05 -61.35,0 -116.89,24.86 -157.09,65.05 -40.19,40.2 -65.05,95.74 -65.05,157.09 0,61.35 24.86,116.89 65.05,157.08 40.2,40.2 95.74,65.06 157.09,65.06 61.35,0 116.89,-24.86 157.08,-65.06 40.2,-40.19 65.06,-95.73 65.06,-157.08 0,-61.35 -24.86,-116.89 -65.06,-157.09z"/>
 </g>
</svg>
